<mxfile host="app.diagrams.net" modified="2023-08-23T23:44:36.392Z" agent="Mozilla/5.0 (Windows NT 10.0; Win64; x64) AppleWebKit/537.36 (KHTML, like Gecko) Chrome/104.0.5112.102 Safari/537.36 Edg/104.0.1293.70" etag="kD6dv2hN2IdRFIFSJXnc" version="21.6.9" type="github">
  <diagram name="PÃ¡gina-1" id="WwhEc-V_bYjmUvGzhOTZ">
    <mxGraphModel dx="1194" dy="616" grid="0" gridSize="10" guides="1" tooltips="1" connect="1" arrows="1" fold="1" page="0" pageScale="1" pageWidth="827" pageHeight="1169" math="0" shadow="0">
      <root>
        <mxCell id="0" />
        <mxCell id="1" parent="0" />
      </root>
    </mxGraphModel>
  </diagram>
</mxfile>
